<?xml version="1.0" encoding="UTF-8"?>
<!DOCTYPE svg PUBLIC "-//W3C//DTD SVG 1.1//EN" "http://www.w3.org/Graphics/SVG/1.1/DTD/svg11.dtd">
<svg xmlns="http://www.w3.org/2000/svg" version="1.1" width="512px" height="512px" style="shape-rendering:geometricPrecision; text-rendering:geometricPrecision; image-rendering:optimizeQuality; fill-rule:evenodd; clip-rule:evenodd" xmlns:xlink="http://www.w3.org/1999/xlink">
<g><path style="opacity:1" fill="#fefefe" d="M -0.5,-0.5 C 170.167,-0.5 340.833,-0.5 511.5,-0.5C 511.5,170.167 511.5,340.833 511.5,511.5C 340.833,511.5 170.167,511.5 -0.5,511.5C -0.5,340.833 -0.5,170.167 -0.5,-0.5 Z"/></g>
<g><path style="opacity:1" fill="#312d82" d="M 341.5,41.5 C 312.695,43.8981 289.361,56.2314 271.5,78.5C 259.035,79.3241 249.869,85.3241 244,96.5C 239.14,106.605 236.474,117.272 236,128.5C 235.5,165.832 235.333,203.165 235.5,240.5C 213.167,240.5 190.833,240.5 168.5,240.5C 168.667,195.499 168.5,150.499 168,105.5C 165.797,82.3151 153.297,73.4818 130.5,79C 120.81,82.6884 113.644,89.1884 109,98.5C 105.26,107.127 102.926,116.127 102,125.5C 101.5,163.832 101.333,202.165 101.5,240.5C 79.5,240.5 57.5,240.5 35.5,240.5C 35.5,171.167 35.5,101.833 35.5,32.5C 57.5,32.5 79.5,32.5 101.5,32.5C 101.334,42.5056 101.5,52.5056 102,62.5C 102.717,61.9558 103.217,61.2891 103.5,60.5C 130.534,25.9227 163.867,18.4227 203.5,38C 214.111,45.3815 222.278,54.8815 228,66.5C 252.728,30.8122 285.895,19.6455 327.5,33C 332.73,35.1057 337.397,37.939 341.5,41.5 Z"/></g>
<g><path style="opacity:1" fill="#b7b6d3" d="M 101.5,32.5 C 102.167,41.8333 102.833,51.1667 103.5,60.5C 103.217,61.2891 102.717,61.9558 102,62.5C 101.5,52.5056 101.334,42.5056 101.5,32.5 Z"/></g>
<g><path style="opacity:1" fill="#f0c314" d="M 366.5,83.5 C 332.869,85.8467 316.203,104.013 316.5,138C 316.062,174.058 333.729,192.558 369.5,193.5C 387.483,193.45 403.65,188.116 418,177.5C 418.5,193.83 418.667,210.163 418.5,226.5C 402.642,232.088 386.309,235.421 369.5,236.5C 346.07,238.207 323.736,234.207 302.5,224.5C 268.321,205.444 252.321,176.111 254.5,136.5C 253.722,115.176 259.389,95.8431 271.5,78.5C 289.361,56.2314 312.695,43.8981 341.5,41.5C 367.844,38.5965 393.511,41.5965 418.5,50.5C 418.667,66.8367 418.5,83.1701 418,99.5C 402.64,88.5321 385.474,83.1988 366.5,83.5 Z"/></g>
<g><path style="opacity:1" fill="#322e81" d="M 366.5,83.5 C 367.648,88.0953 368.481,92.7619 369,97.5C 369.5,129.498 369.667,161.498 369.5,193.5C 333.729,192.558 316.062,174.058 316.5,138C 316.203,104.013 332.869,85.8467 366.5,83.5 Z"/></g>
<g><path style="opacity:1" fill="#322e82" d="M 302.5,224.5 C 323.736,234.207 346.07,238.207 369.5,236.5C 369.5,237.833 369.5,239.167 369.5,240.5C 347.167,240.5 324.833,240.5 302.5,240.5C 302.5,235.167 302.5,229.833 302.5,224.5 Z"/></g>
<g><path style="opacity:1" fill="#bf2163" d="M 246.5,305.5 C 212.167,305.5 177.833,305.5 143.5,305.5C 143.171,320.343 143.504,335.01 144.5,349.5C 176.167,349.5 207.833,349.5 239.5,349.5C 239.5,364.5 239.5,379.5 239.5,394.5C 207.5,394.5 175.5,394.5 143.5,394.5C 143.5,412.5 143.5,430.5 143.5,448.5C 178.833,448.5 214.167,448.5 249.5,448.5C 249.333,461.504 249.5,474.504 250,487.5C 278.172,411.65 306.338,335.817 334.5,260C 358.507,259.167 382.507,259.334 406.5,260.5C 435.167,337.833 463.833,415.167 492.5,492.5C 472.508,493.666 452.508,493.833 432.5,493C 427.303,479.076 422.303,465.076 417.5,451C 386.167,450.333 354.833,450.333 323.5,451C 318.407,464.779 313.407,478.612 308.5,492.5C 233.503,493.5 158.503,493.833 83.5,493.5C 83.5,415.833 83.5,338.167 83.5,260.5C 137.833,260.5 192.167,260.5 246.5,260.5C 246.5,275.5 246.5,290.5 246.5,305.5 Z"/></g>
<g><path style="opacity:1" fill="#e19ab8" d="M 246.5,305.5 C 212.671,306.498 178.671,306.832 144.5,306.5C 144.5,320.833 144.5,335.167 144.5,349.5C 143.504,335.01 143.171,320.343 143.5,305.5C 177.833,305.5 212.167,305.5 246.5,305.5 Z"/></g>
<g><path style="opacity:1" fill="#fefdfd" d="M 401.5,405.5 C 380.833,406.833 360.167,406.833 339.5,405.5C 348.846,375.46 359.18,345.793 370.5,316.5C 381.43,345.955 391.763,375.622 401.5,405.5 Z"/></g>
<g><path style="opacity:1" fill="#efcada" d="M 339.5,405.5 C 360.167,406.833 380.833,406.833 401.5,405.5C 402.043,405.56 402.376,405.893 402.5,406.5C 381.167,407.833 359.833,407.833 338.5,406.5C 338.624,405.893 338.957,405.56 339.5,405.5 Z"/></g>
<g><path style="opacity:1" fill="#e29cb9" d="M 239.5,349.5 C 240.496,364.658 240.83,379.991 240.5,395.5C 208.5,395.5 176.5,395.5 144.5,395.5C 144.5,412.833 144.5,430.167 144.5,447.5C 179.671,447.168 214.671,447.502 249.5,448.5C 214.167,448.5 178.833,448.5 143.5,448.5C 143.5,430.5 143.5,412.5 143.5,394.5C 175.5,394.5 207.5,394.5 239.5,394.5C 239.5,379.5 239.5,364.5 239.5,349.5 Z"/></g>
</svg>
